<?xml version="1.0" encoding="UTF-8"?>
<svg width="1200pt" height="1200pt" version="1.1" viewBox="0 0 1200 1200" xmlns="http://www.w3.org/2000/svg">
 <g>
  <path d="m1092 753.89v-572.33h-283.19l-11.555-146.28h-99.699l11.555 146.27-218.22-0.003906 11.547-146.27h-99.719l-11.547 146.28h-283.18v572.33h238l-3.4805 44.016h-65.113v91.645h57.875l-21.719 275.18h99.719l21.73-275.18h330.01l21.73 275.18h99.707l-21.738-275.18h57.863v-91.645h-65.113l-3.4688-44.016zm-368.47-694.61h51.562l9.6602 122.27h-51.562zm-298.62 0h51.562l-9.6562 122.28h-51.562zm-292.91 670.61v-524.33h936v524.33zm622.3 24 3.4688 44.016h-315.53l3.4805-44.016zm-384.22 0h51.562l-3.4922 44.016h-51.562zm21.016 386.84h-51.562l19.836-251.18h51.562zm469.38 0h-51.562l-19.824-251.18h51.562zm38.113-318.83v43.645h-597.18v-43.645zm-65.188-24h-51.562l-3.4688-44.016h51.562z"/>
  <path d="m736.84 463.22c-30.301 37.801-76.117 67.176-96.133 111.74-8.9297 19.859 23.867 34.477 38.219 36.07 29.578 3.3125 55.848-6.0703 82.129-16.547 2.4102 10.57 10.379 19.98 28.055 28.391 38.891 18.539 82.824 3.3477 120.19-12.301 20.762-8.6875-25.066-45.434-45.422-36.91-11.438 4.7891-23.125 8.3281-35.027 11.734-23.52 6.707-9.8047 2.8789-2.375-16.105 8.1602-20.785-27.156-39.238-43.969-35.531-18.059 3.9844-35.426 11.676-52.824 18.949 34.523-36.863 76.668-68.051 88.117-119.79 4.2461-19.211-31.094-33.961-45.289-31.164-88.152 17.34-166.78 68.965-252.74 92.137 38.41-47.93 88.512-86.148 124.71-136.61 13.332-18.574-30.562-38.762-43.969-35.531-92.891 22.414-186.83 61.895-283.13 64.332 53.496-45.48 122.98-69.18 181.95-107.51 20.723-13.488-27-48.898-45.445-36.91-74.438 48.422-161.36 74.461-219.17 145.29-11.699 14.328 21.984 33.648 31.668 35.258 94.164 15.551 182.7-7.6562 271.57-32.867-37.332 37.609-76.43 73.414-101.23 121.62-9.3242 18.121 24.098 36.672 38.207 36.07 94.531-3.9961 175.33-52.297 261.91-83.82z"/>
 </g>
 
</svg>
